<svg width="18" height="18" viewBox="0 0 18 18" fill="none" xmlns="http://www.w3.org/2000/svg">
<path d="M0.28771 13.4271L0.877325 14.0208C1.06289 14.2062 1.30977 14.3084 1.57362 14.3084C1.83733 14.3084 2.08451 14.2062 2.27007 14.0208L8.99598 7.29459L15.7296 14.0283C15.9149 14.2137 16.1621 14.3157 16.4258 14.3157C16.6895 14.3157 16.9368 14.2137 17.1222 14.0283L17.712 13.4382C18.096 13.0545 18.096 12.4295 17.712 12.0458L9.69476 3.99969C9.50949 3.81442 9.26261 3.68388 8.99656 3.68388H8.99349C8.72963 3.68388 8.48275 3.81456 8.29748 3.99969L0.28771 12.0239C0.102148 12.2092 0.000293732 12.4636 0 12.7273C0 12.9911 0.102148 13.242 0.28771 13.4271Z" fill="#6B5AF9"/>
</svg>
